HIERARCHY
ROOT hip
{
  OFFSET 0 0 0
  CHANNELS 6 Xposition Yposition Zposition Zrotation Yrotation Xrotation
  JOINT abdomen
  {
    OFFSET 0 20.6881 -0.73152
    CHANNELS 3 Zrotation Xrotation Yrotation
    JOINT chest
    {
      OFFSET 0 11.7043 -0.48768
      CHANNELS 3 Zrotation Xrotation Yrotation
      JOINT neck
      {
        OFFSET 0 22.1894 -2.19456
        CHANNELS 3 Zrotation Xrotation Yrotation
        JOINT head
        {
          OFFSET -0.24384 7.07133 1.2192
          CHANNELS 3 Zrotation Xrotation Yrotation
          JOINT leftEye
          {
            OFFSET 4.14528 8.04674 8.04672
            CHANNELS 3 Zrotation Xrotation Yrotation
            End Site
            {
              OFFSET 1 0 0
            }
          }
          JOINT rightEye
          {
            OFFSET -3.6576 8.04674 8.04672
            CHANNELS 3 Zrotation Xrotation Yrotation
            End Site
            {
              OFFSET 1 0 0
            }
          }
        }
      }
      JOINT rCollar
      {
        OFFSET -2.68224 19.2634 -4.8768
        CHANNELS 3 Zrotation Xrotation Yrotation
        JOINT rShldr
        {
          OFFSET -8.77824 -1.95073 1.46304
          CHANNELS 3 Zrotation Xrotation Yrotation
          JOINT rForeArm
          {
            OFFSET -28.1742 -1.7115 0.48768
            CHANNELS 3 Zrotation Xrotation Yrotation
            JOINT rHand
            {
              OFFSET -22.5879 0.773209 7.07136
              CHANNELS 3 Zrotation Xrotation Yrotation
              JOINT rThumb1
              {
                OFFSET -1.2192 -0.487915 3.41376
                CHANNELS 3 Zrotation Xrotation Yrotation
                JOINT rThumb2
                {
                  OFFSET -3.37035 -0.52449 3.41376
                  CHANNELS 3 Zrotation Xrotation Yrotation
                  End Site
                  {
                    OFFSET -1.78271 -1.18214 1.43049
                  }
                }
              }
              JOINT rIndex1
              {
                OFFSET -7.75947 0.938293 5.60832
                CHANNELS 3 Zrotation Xrotation Yrotation
                JOINT rIndex2
                {
                  OFFSET -2.54057 -0.884171 1.56538
                  CHANNELS 3 Zrotation Xrotation Yrotation
                  End Site
                  {
                    OFFSET -1.62519 -0.234802 1.16502
                  }
                }
              }
              JOINT rMid1
              {
                OFFSET -8.24714 1.18213 3.41376
                CHANNELS 3 Zrotation Xrotation Yrotation
                JOINT rMid2
                {
                  OFFSET -3.10165 -0.590103 1.0647
                  CHANNELS 3 Zrotation Xrotation Yrotation
                  End Site
                  {
                    OFFSET -2.48547 -0.328903 0.83742
                  }
                }
              }
              JOINT rRing1
              {
                OFFSET -8.82822 0.546677 1.51678
                CHANNELS 3 Zrotation Xrotation Yrotation
                JOINT rRing2
                {
                  OFFSET -2.60934 -0.819778 -0.0198488
                  CHANNELS 3 Zrotation Xrotation Yrotation
                  End Site
                  {
                    OFFSET -2.33842 -0.294052 0.168128
                  }
                }
              }
              JOINT rPinky1
              {
                OFFSET -8.27202 -0.0477905 -0.4584
                CHANNELS 3 Zrotation Xrotation Yrotation
                JOINT rPinky2
                {
                  OFFSET -1.82734 -0.647385 -0.700984
                  CHANNELS 3 Zrotation Xrotation Yrotation
                  End Site
                  {
                    OFFSET -1.69225 -0.51767 -0.607171
                  }
                }
              }
            }
          }
        }
      }
      JOINT lCollar
      {
        OFFSET 2.68224 19.2634 -4.8768
        CHANNELS 3 Zrotation Xrotation Yrotation
        JOINT lShldr
        {
          OFFSET 8.77824 -1.95073 1.46304
          CHANNELS 3 Zrotation Xrotation Yrotation
          JOINT lForeArm
          {
            OFFSET 28.1742 -1.7115 0.48768
            CHANNELS 3 Zrotation Xrotation Yrotation
            JOINT lHand
            {
              OFFSET 22.5879 0.773209 7.07136
              CHANNELS 3 Zrotation Xrotation Yrotation
              JOINT lThumb1
              {
                OFFSET 1.2192 -0.487915 3.41376
                CHANNELS 3 Zrotation Xrotation Yrotation
                JOINT lThumb2
                {
                  OFFSET 3.37035 -0.52449 3.41376
                  CHANNELS 3 Zrotation Xrotation Yrotation
                  End Site
                  {
                    OFFSET 1.78271 -1.18214 1.43049
                  }
                }
              }
              JOINT lIndex1
              {
                OFFSET 7.75947 0.938293 5.60832
                CHANNELS 3 Zrotation Xrotation Yrotation
                JOINT lIndex2
                {
                  OFFSET 2.54057 -0.884171 1.56538
                  CHANNELS 3 Zrotation Xrotation Yrotation
                  End Site
                  {
                    OFFSET 1.62519 -0.234802 1.16502
                  }
                }
              }
              JOINT lMid1
              {
                OFFSET 8.24714 1.18213 3.41376
                CHANNELS 3 Zrotation Xrotation Yrotation
                JOINT lMid2
                {
                  OFFSET 3.10165 -0.590103 1.0647
                  CHANNELS 3 Zrotation Xrotation Yrotation
                  End Site
                  {
                    OFFSET 2.48547 -0.328903 0.83742
                  }
                }
              }
              JOINT lRing1
              {
                OFFSET 8.82822 0.546677 1.51678
                CHANNELS 3 Zrotation Xrotation Yrotation
                JOINT lRing2
                {
                  OFFSET 2.60934 -0.819778 -0.0198488
                  CHANNELS 3 Zrotation Xrotation Yrotation
                  End Site
                  {
                    OFFSET 2.33842 -0.294052 0.168128
                  }
                }
              }
              JOINT lPinky1
              {
                OFFSET 8.27202 -0.0477905 -0.4584
                CHANNELS 3 Zrotation Xrotation Yrotation
                JOINT lPinky2
                {
                  OFFSET 1.82734 -0.647385 -0.700984
                  CHANNELS 3 Zrotation Xrotation Yrotation
                  End Site
                  {
                    OFFSET 1.69225 -0.51767 -0.607171
                  }
                }
              }
            }
          }
        }
      }
    }
  }
  JOINT rButtock
  {
    OFFSET -8.77824 4.35084 1.2192
    CHANNELS 3 Zrotation Xrotation Yrotation
    JOINT rThigh
    {
      OFFSET 0 -1.70687 -2.19456
      CHANNELS 3 Zrotation Xrotation Yrotation
      JOINT rShin
      {
        OFFSET 0 -36.8199 0.73152
        CHANNELS 3 Zrotation Xrotation Yrotation
        JOINT rFoot
        {
          OFFSET 0.73152 -45.1104 -5.12064
          CHANNELS 3 Zrotation Xrotation Yrotation
          End Site
          {
            OFFSET -1.1221 -3.69964 12.103
          }
        }
      }
    }
  }
  JOINT lButtock
  {
    OFFSET 8.77824 4.35084 1.2192
    CHANNELS 3 Zrotation Xrotation Yrotation
    JOINT lThigh
    {
      OFFSET 0 -1.70687 -2.19456
      CHANNELS 3 Zrotation Xrotation Yrotation
      JOINT lShin
      {
        OFFSET 0 -36.8199 0.73152
        CHANNELS 3 Zrotation Xrotation Yrotation
        JOINT lFoot
        {
          OFFSET -0.73152 -45.1104 -5.12064
          CHANNELS 3 Zrotation Xrotation Yrotation
          End Site
          {
            OFFSET 1.1221 -3.69964 12.103
          }
        }
      }
    }
  }
}
MOTION
Frames:	4
Frame Time:	0.03333
-12.4423 58.0532 110.552 -6.741800308227539 8.847898483276367 5.576700687408447 0.8963099122047424 17.774900436401367 -5.334949970245361 4.892820358276367 -12.006701469421387 -0.8814699649810791 -6.518070220947266 14.435298919677734 -1.6057796478271484 14.190099716186523 -33.942203521728516 1.2771997451782227 -0.0 0.0 -0.0 -0.0 0.0 -0.0 4.9869498450465927e-14 -1.4908799021717822e-13 -1.2921899607189896e-13 24.384002685546875 33.32940673828125 59.83269500732422 -23.89590072631836 -18.90340232849121 49.286197662353516 -0.574428915977478 21.02840232849121 3.0969297885894775 -4.548879606325329e-10 -1.8790697886572616e-09 5.606269337654624e-10 -7.774609844801716e-10 -3.2225000445862406e-09 9.772249676132105e-10 -4.54884990785942e-10 -1.8790697886572616e-09 5.606219932730028e-10 7.730909824371338 5.474879741668701 0.4173140823841095 -4.548879606325329e-10 -1.8790697886572616e-09 5.606229924737249e-10 2.9055399894714355 0.9651829600334167 0.10290199518203735 -4.548799947823312e-10 -1.8790697886572616e-09 5.606219932730028e-10 10.27859878540039 0.73180091381073 0.025912316516041756 -4.548929843917193e-10 -1.8790697886572616e-09 5.606259900758914e-10 2.221669912338257 -0.733487069606781 -0.208919957280159 4.9824199128446767e-14 -1.4908899310418777e-13 -1.294709917618389e-13 6.768679618835449 12.199999809265137 -120.58499908447266 26.391094207763672 -45.402809143066406 -94.4010009765625 3.311309576034546 -45.44639587402344 8.01603889465332 1.0145100037828314e-10 6.126489315860795e-10 -5.893369681153615e-10 1.836919921727187e-10 1.0478200529462356e-09 -1.025339924076718e-09 1.0144699663650059e-10 6.126500418091041e-10 -5.89326032418569e-10 -7.730909824371338 5.474879741668701 -0.4173140823841095 1.0144999423866707e-10 6.126500418091041e-10 -5.893359689146394e-10 -2.9055399894714355 0.9651829600334167 -0.10290199518203735 1.0144699663650059e-10 6.126500418091041e-10 -5.893289745095842e-10 -10.27859878540039 0.73180091381073 -0.025912316516041756 1.0145399104155572e-10 6.12650985498675e-10 -5.893309729110285e-10 -2.221669912338257 -0.733487069606781 0.208919957280159 -2.0321699480147914e-16 0.0 -3.8825099822884138e-19 -10.377799034118652 -53.02150344848633 -31.949697494506836 -2.0899598598480225 71.03449249267578 2.896549940109253 -7.797110080718994 -11.689398765563965 -22.42780113220215 2.0321699480147914e-16 0.0 3.8825099822884138e-19 23.966598510742188 -45.92090606689453 22.575700759887695 173.43299865722656 79.73622131347656 -174.59500122070312 3.463639497756958 -8.571109771728516 15.875800132751465
-12.4827 57.77870000000001 112.64 -7.107800006866455 5.59559965133667 5.362800121307373 0.5755460262298584 18.23020362854004 -4.751820087432861 4.8657097816467285 -12.196599960327148 -0.739853024482727 -6.625909805297852 14.100000381469727 -0.867642879486084 14.358899116516113 -33.471405029296875 2.806840419769287 -0.0 0.0 -0.0 -0.0 0.0 -0.0 1.0977399951496089e-13 -2.1787000643262028e-13 -1.3005499726204822e-13 17.636598587036133 35.48889923095703 66.17169952392578 -23.996397018432617 -19.090600967407227 49.59819793701172 -0.5358511209487915 20.340099334716797 2.9864399433135986 -3.2125599402910154e-10 -1.579219977010382e-09 1.147040018523171e-09 -5.355119681027531e-10 -2.6623299120842603e-09 1.988730069513167e-09 -3.212519972262129e-10 -1.579219977010382e-09 1.147040018523171e-09 7.730909824371338 5.474879741668701 0.4173140823841095 -3.2125599402910154e-10 -1.579219977010382e-09 1.147040018523171e-09 2.9055399894714355 0.9651829600334167 0.10290199518203735 -3.2124800042332424e-10 -1.579219977010382e-09 1.147040018523171e-09 10.27859878540039 0.73180091381073 0.025912316516041756 -3.2125799243054587e-10 -1.579219977010382e-09 1.147040018523171e-09 2.221669912338257 -0.733487069606781 -0.208919957280159 1.0969099706239355e-13 -2.1786600843710924e-13 -1.3035299022915586e-13 6.586369514465332 7.409649848937988 -119.82099914550781 26.68179702758789 -44.81700134277344 -93.08670043945312 0.854295015335083 -25.287202835083008 3.8069496154785156 4.4702097579119027e-10 1.1995099358230732e-09 -1.40761002853651e-09 8.027560283174751e-10 2.086480099805499e-09 -2.423109934923673e-09 4.4701398138613513e-10 1.1995198168079924e-09 -1.407599925506986e-09 -7.730909824371338 5.474879741668701 -0.4173140823841095 4.470180059445994e-10 1.1995198168079924e-09 -1.40761002853651e-09 -2.9055399894714355 0.9651829600334167 -0.10290199518203735 4.4701398138613513e-10 1.1995198168079924e-09 -1.407599925506986e-09 -10.27859878540039 0.73180091381073 -0.025912316516041756 4.4702397339335675e-10 1.1995198168079924e-09 -1.40761002853651e-09 -2.221669912338257 -0.733487069606781 0.208919957280159 -2.0321699480147914e-16 0.0 -3.8825099822884138e-19 -8.116458892822266 -51.82420349121094 -29.84389877319336 -2.177450180053711 71.7461166381836 3.0745997428894043 -8.119119644165039 -13.540802001953125 -21.87019920349121 2.0321699480147914e-16 0.0 3.8825099822884138e-19 24.764598846435547 -52.347999572753906 25.341697692871094 172.70799255371094 80.5738296508789 -173.52999877929688 3.7071495056152344 -8.396599769592285 15.385498046875
-12.4744 57.4496 114.85899999999998 -7.290400505065918 1.9190998077392578 5.084099769592285 0.026069199666380882 18.600004196166992 -3.8566503524780273 4.750479698181152 -12.465099334716797 -0.5200721621513367 -6.722939968109131 13.765599250793457 -0.09582766890525818 14.141098976135254 -32.523704528808594 4.223310947418213 -0.0 0.0 -0.0 -0.0 0.0 -0.0 2.0959601242098724e-13 -5.3676193264434735e-14 4.770209699250447e-14 10.159098625183105 36.93489456176758 73.10009765625 -24.155397415161133 -19.38840103149414 50.1234016418457 -0.5181759595870972 20.0143985748291 2.9345099925994873 -1.2678899041773661e-09 -3.5274898557702272e-09 6.316329681510524e-10 -2.1776698222453206e-09 -6.055969947738049e-09 1.110209923993466e-09 -1.2678899041773661e-09 -3.527499847777449e-09 6.316269729467194e-10 7.730909824371338 5.474879741668701 0.4173140823841095 -1.2678899041773661e-09 -3.5274898557702272e-09 6.316259737459973e-10 2.9055399894714355 0.9651829600334167 0.10290199518203735 -1.2678899041773661e-09 -3.5274898557702272e-09 6.316299150377347e-10 10.27859878540039 0.73180091381073 0.025912316516041756 -1.2678899041773661e-09 -3.5274898557702272e-09 6.316389633553854e-10 2.221669912338257 -0.733487069606781 -0.208919957280159 2.0965499301917045e-13 -5.3666398175432686e-14 4.74100976305316e-14 5.525789737701416 4.0542402267456055 -117.66499328613281 27.260099411010742 -43.42699432373047 -90.14230346679688 -0.32776597142219543 -1.2559001445770264 0.21538296341896057 5.842480388373872e-10 1.3240499807665174e-09 -8.685189789581216e-10 1.0291100194237401e-09 2.2963300150280475e-09 -1.5034800071589416e-09 5.84241988121903e-10 1.3240499807665174e-09 -8.685099306404709e-10 -7.730909824371338 5.474879741668701 -0.4173140823841095 5.842469841255138e-10 1.3240499807665174e-09 -8.685189789581216e-10 -2.9055399894714355 0.9651829600334167 -0.10290199518203735 5.84241988121903e-10 1.3240499807665174e-09 -8.685179797573994e-10 -10.27859878540039 0.73180091381073 -0.025912316516041756 5.842519801291246e-10 1.3240499807665174e-09 -8.685249741624546e-10 -2.221669912338257 -0.733487069606781 0.208919957280159 -2.0321699480147914e-16 0.0 -3.8825099822884138e-19 -6.271719455718994 -50.38789749145508 -27.775699615478516 -2.2999000549316406 72.58380889892578 3.2700400352478027 -8.310160636901855 -15.70529842376709 -20.915401458740234 2.0321699480147914e-16 0.0 3.8825099822884138e-19 26.553197860717773 -57.87191390991211 28.47429847717285 170.10598754882812 83.1465072631836 -170.62400817871094 3.5529801845550537 -7.7341694831848145 13.8760986328125
-12.4216 57.2108 117.174 -7.3317999839782715 -2.2383997440338135 4.729799747467041 -0.7550400495529175 18.840797424316406 -2.6376402378082275 4.4783501625061035 -12.747201919555664 -0.23267792165279388 -6.7309794425964355 13.427799224853516 0.6988039016723633 13.655999183654785 -31.280202865600586 5.5643205642700195 -0.0 0.0 -0.0 -0.0 0.0 -0.0 2.609189719750965e-13 1.2244599865290917e-13 2.0206499505310421e-13 2.2603302001953125 37.4922981262207 80.29029846191406 -24.431598663330078 -19.92620086669922 51.005096435546875 -0.5176660418510437 20.01000213623047 2.9337098598480225 -2.1830899310515406e-09 -5.439899641856982e-09 -2.100119904369091e-11 -3.768589884600715e-09 -9.402199019348245e-09 -5.391040044933071e-12 -2.1830899310515406e-09 -5.439920069960635e-09 -2.1010700124168835e-11 7.730909824371338 5.474879741668701 0.4173140823841095 -2.1830899310515406e-09 -5.439899641856982e-09 -2.100759843859379e-11 2.9055399894714355 0.9651829600334167 0.10290199518203735 -2.1830899310515406e-09 -5.439899641856982e-09 -2.100039760144501e-11 10.27859878540039 0.73180091381073 0.025912316516041756 -2.1830899310515406e-09 -5.439899641856982e-09 -2.0985298568310107e-11 2.221669912338257 -0.733487069606781 -0.208919957280159 2.611069997368598e-13 1.2245899552645184e-13 2.0181599447166576e-13 4.269730091094971 1.9123598337173462 -114.57398986816406 27.701797485351562 -41.7639045715332 -87.1449966430664 0.5708200335502625 20.957103729248047 -3.0856001377105713 6.20970996845216e-10 1.2039199637214892e-09 -5.4231601848142574e-11 1.078769962248316e-09 2.0807999767669116e-09 -1.0776499137499229e-10 6.20965001640883e-10 1.2039199637214892e-09 -5.4222099032941173e-11 -7.730909824371338 5.474879741668701 -0.4173140823841095 6.20970996845216e-10 1.2039199637214892e-09 -5.4231601848142574e-11 -2.9055399894714355 0.9651829600334167 -0.10290199518203735 6.209670000423273e-10 1.2039199637214892e-09 -5.4234800678232276e-11 -10.27859878540039 0.73180091381073 -0.025912316516041756 6.209749936481046e-10 1.2039199637214892e-09 -5.424439369905443e-11 -2.221669912338257 -0.733487069606781 0.208919957280159 -2.0321699480147914e-16 0.0 -3.8825099822884138e-19 -4.8937296867370605 -48.74820327758789 -25.7721004486084 -2.4328701496124268 73.3558120727539 3.4537205696105957 -8.27903938293457 -17.93380355834961 -19.631298065185547 2.0321699480147914e-16 0.0 3.8825099822884138e-19 29.412797927856445 -62.16349792480469 32.235496520996094 157.00999450683594 87.09464263916016 -157.2519989013672 3.059879779815674 -6.244999408721924 11.789899826049805
